<?xml version="1.0" encoding="UTF-8" standalone="no"?>
<!DOCTYPE svg PUBLIC "-//W3C//DTD SVG 1.1//EN" "http://www.w3.org/Graphics/SVG/1.1/DTD/svg11.dtd">
<svg width="100%" height="100%" viewBox="0 0 3000 1076" version="1.1" xmlns="http://www.w3.org/2000/svg" xmlns:xlink="http://www.w3.org/1999/xlink" xml:space="preserve" xmlns:serif="http://www.serif.com/" style="fill-rule:evenodd;clip-rule:evenodd;stroke-linejoin:round;stroke-miterlimit:2;">
    <g transform="matrix(1.10416,0,0,0.407954,-204.72,-18.8177)">
        <g transform="matrix(974.563,0,0,2637.74,152.097,2119.88)">
            <path d="M0.299,0.01C0.244,0.01 0.196,-0.002 0.156,-0.025C0.117,-0.048 0.087,-0.079 0.066,-0.118C0.045,-0.156 0.034,-0.199 0.034,-0.246L0.034,-0.265C0.034,-0.318 0.044,-0.365 0.064,-0.406C0.084,-0.447 0.113,-0.479 0.15,-0.503C0.187,-0.526 0.231,-0.538 0.283,-0.538C0.334,-0.538 0.377,-0.527 0.412,-0.506C0.446,-0.484 0.473,-0.454 0.491,-0.415C0.509,-0.376 0.518,-0.331 0.518,-0.278L0.518,-0.216L0.096,-0.216L0.096,-0.315L0.373,-0.315L0.373,-0.327C0.373,-0.345 0.369,-0.361 0.363,-0.375C0.356,-0.389 0.346,-0.4 0.333,-0.408C0.32,-0.416 0.303,-0.419 0.282,-0.419C0.258,-0.419 0.238,-0.413 0.224,-0.399C0.209,-0.385 0.198,-0.367 0.192,-0.344C0.185,-0.321 0.182,-0.294 0.182,-0.265L0.182,-0.246C0.182,-0.219 0.187,-0.195 0.197,-0.175C0.207,-0.154 0.221,-0.138 0.24,-0.127C0.259,-0.115 0.282,-0.109 0.309,-0.109C0.334,-0.109 0.357,-0.114 0.379,-0.123C0.401,-0.133 0.419,-0.147 0.435,-0.167L0.506,-0.085C0.489,-0.062 0.464,-0.04 0.429,-0.02C0.394,-0 0.351,0.01 0.299,0.01Z" style="fill-rule:nonzero;"/>
        </g>
        <g transform="matrix(974.563,0,0,2637.74,669.358,2119.88)">
            <rect x="0.06" y="-0.75" width="0.148" height="0.75" style="fill-rule:nonzero;"/>
        </g>
        <g transform="matrix(974.563,0,0,2637.74,906.337,2119.88)">
            <path d="M0.299,0.01C0.244,0.01 0.196,-0.002 0.156,-0.025C0.117,-0.048 0.087,-0.079 0.066,-0.118C0.045,-0.156 0.034,-0.199 0.034,-0.246L0.034,-0.265C0.034,-0.318 0.044,-0.365 0.064,-0.406C0.084,-0.447 0.113,-0.479 0.15,-0.503C0.187,-0.526 0.231,-0.538 0.283,-0.538C0.334,-0.538 0.377,-0.527 0.412,-0.506C0.446,-0.484 0.473,-0.454 0.491,-0.415C0.509,-0.376 0.518,-0.331 0.518,-0.278L0.518,-0.216L0.096,-0.216L0.096,-0.315L0.373,-0.315L0.373,-0.327C0.373,-0.345 0.369,-0.361 0.363,-0.375C0.356,-0.389 0.346,-0.4 0.333,-0.408C0.32,-0.416 0.303,-0.419 0.282,-0.419C0.258,-0.419 0.238,-0.413 0.224,-0.399C0.209,-0.385 0.198,-0.367 0.192,-0.344C0.185,-0.321 0.182,-0.294 0.182,-0.265L0.182,-0.246C0.182,-0.219 0.187,-0.195 0.197,-0.175C0.207,-0.154 0.221,-0.138 0.24,-0.127C0.259,-0.115 0.282,-0.109 0.309,-0.109C0.334,-0.109 0.357,-0.114 0.379,-0.123C0.401,-0.133 0.419,-0.147 0.435,-0.167L0.506,-0.085C0.489,-0.062 0.464,-0.04 0.429,-0.02C0.394,-0 0.351,0.01 0.299,0.01Z" style="fill-rule:nonzero;"/>
        </g>
        <g transform="matrix(974.563,0,0,2637.74,1493.44,2053.93)">
            <path d="M0.09,-0.445L0.09,-0.573C0.09,-0.634 0.108,-0.68 0.143,-0.712C0.179,-0.744 0.226,-0.76 0.287,-0.76C0.3,-0.76 0.313,-0.759 0.325,-0.758C0.337,-0.756 0.349,-0.753 0.36,-0.75L0.359,-0.637C0.353,-0.638 0.347,-0.639 0.34,-0.64C0.333,-0.64 0.325,-0.641 0.316,-0.641C0.292,-0.641 0.272,-0.635 0.259,-0.623C0.245,-0.612 0.238,-0.595 0.238,-0.573L0.238,-0.445L0.09,-0.445Z" style="fill-rule:nonzero;"/>
        </g>
        <g transform="matrix(5.40161,14.62,-5.40161,14.62,477.071,-38290.9)">
            <path d="M1470.42,1239.27C1470.66,1239.5 1471.03,1239.5 1471.26,1239.27C1473.26,1237.27 1481.82,1228.71 1483.82,1226.71C1484.05,1226.48 1484.43,1226.48 1484.66,1226.71C1486.13,1228.18 1490.95,1233.01 1490.95,1233.01L1482.01,1237.53C1482.01,1237.53 1477.96,1238.89 1476.11,1239.52C1475.92,1239.59 1475.77,1239.75 1475.72,1239.95C1475.68,1240.15 1475.74,1240.36 1475.88,1240.5C1477.54,1242.15 1481.78,1246.4 1483.43,1248.05C1483.57,1248.19 1483.78,1248.25 1483.98,1248.21C1484.18,1248.16 1484.34,1248.01 1484.41,1247.82C1485.22,1245.45 1487.41,1239.03 1488.31,1236.4C1488.38,1236.19 1488.32,1235.95 1488.16,1235.79C1488.01,1235.63 1487.77,1235.58 1487.55,1235.65C1485.65,1236.3 1482.01,1237.53 1482.01,1237.53L1490.95,1233.01C1490.95,1233.01 1495.76,1237.81 1497.22,1239.27C1497.33,1239.38 1497.39,1239.53 1497.39,1239.69C1497.39,1239.85 1497.33,1240 1497.22,1240.11C1495.22,1242.11 1486.66,1250.67 1484.66,1252.67C1484.43,1252.9 1484.43,1253.28 1484.66,1253.51C1486.66,1255.51 1495.22,1264.07 1497.22,1266.07C1497.45,1266.3 1497.45,1266.67 1497.22,1266.9C1495.75,1268.37 1490.94,1273.19 1490.94,1273.19L1486.33,1264.03C1486.33,1264.03 1485.02,1260.16 1484.41,1258.36C1484.34,1258.17 1484.18,1258.02 1483.98,1257.98C1483.78,1257.93 1483.57,1257.99 1483.42,1258.13C1481.77,1259.79 1477.54,1264.02 1475.89,1265.67C1475.74,1265.82 1475.68,1266.03 1475.73,1266.23C1475.78,1266.42 1475.92,1266.59 1476.12,1266.65C1478.49,1267.46 1484.91,1269.64 1487.54,1270.54C1487.75,1270.61 1487.99,1270.56 1488.15,1270.39C1488.31,1270.24 1488.36,1270 1488.29,1269.79C1487.62,1267.83 1486.33,1264.03 1486.33,1264.03L1490.94,1273.19C1490.94,1273.19 1486.13,1278 1484.66,1279.46C1484.43,1279.7 1484.05,1279.7 1483.82,1279.46C1481.82,1277.46 1473.26,1268.9 1471.26,1266.9C1471.03,1266.67 1470.66,1266.67 1470.42,1266.9C1468.42,1268.9 1459.87,1277.46 1457.87,1279.46C1457.75,1279.58 1457.6,1279.64 1457.45,1279.64C1457.29,1279.64 1457.14,1279.58 1457.03,1279.46C1455.56,1278 1450.76,1273.2 1450.76,1273.2L1459.39,1268.76C1459.39,1268.76 1463.66,1267.31 1465.57,1266.66C1465.77,1266.59 1465.91,1266.43 1465.96,1266.23C1466,1266.03 1465.94,1265.82 1465.8,1265.68C1464.15,1264.02 1459.91,1259.78 1458.25,1258.13C1458.11,1257.99 1457.9,1257.92 1457.7,1257.97C1457.5,1258.02 1457.34,1258.16 1457.27,1258.36C1456.47,1260.74 1454.29,1267.17 1453.4,1269.8C1453.33,1270.02 1453.39,1270.25 1453.55,1270.41C1453.71,1270.57 1453.94,1270.62 1454.16,1270.55C1455.99,1269.93 1459.39,1268.76 1459.39,1268.76L1450.76,1273.2C1450.76,1273.2 1445.94,1268.37 1444.47,1266.9C1444.24,1266.67 1444.24,1266.3 1444.47,1266.07C1446.47,1264.07 1455.03,1255.51 1457.03,1253.51C1457.26,1253.28 1457.26,1252.9 1457.03,1252.67C1455.03,1250.67 1446.47,1242.11 1444.47,1240.11C1444.24,1239.88 1444.24,1239.5 1444.47,1239.27C1445.93,1237.81 1450.75,1232.99 1450.75,1232.99L1455.34,1242.13C1455.34,1242.13 1456.66,1246.01 1457.27,1247.81C1457.34,1248.01 1457.5,1248.15 1457.7,1248.2C1457.9,1248.24 1458.11,1248.18 1458.25,1248.04C1459.9,1246.39 1464.14,1242.15 1465.79,1240.5C1465.94,1240.36 1466,1240.15 1465.95,1239.95C1465.9,1239.75 1465.76,1239.59 1465.56,1239.52C1463.19,1238.71 1456.77,1236.53 1454.14,1235.64C1453.93,1235.57 1453.69,1235.62 1453.53,1235.78C1453.37,1235.94 1453.32,1236.18 1453.39,1236.39C1454.05,1238.35 1455.34,1242.13 1455.34,1242.13L1450.75,1232.99C1450.75,1232.99 1455.56,1228.18 1457.03,1226.71C1457.26,1226.48 1457.63,1226.48 1457.87,1226.71C1459.87,1228.71 1468.42,1237.27 1470.42,1239.27Z" style="fill:rgb(51,153,0);"/>
        </g>
        <g transform="matrix(974.563,0,0,2637.74,1863.12,2119.88)">
            <path d="M0.52,-0.528L0.52,-0.019C0.52,0.029 0.509,0.071 0.488,0.104C0.466,0.138 0.436,0.164 0.397,0.182C0.358,0.199 0.313,0.208 0.262,0.208C0.24,0.208 0.217,0.205 0.192,0.199C0.168,0.193 0.144,0.184 0.121,0.172C0.099,0.16 0.08,0.145 0.065,0.126L0.129,0.036C0.145,0.054 0.164,0.068 0.185,0.078C0.207,0.088 0.23,0.093 0.256,0.093C0.293,0.093 0.321,0.084 0.342,0.064C0.362,0.045 0.372,0.017 0.372,-0.019L0.372,-0.405L0.386,-0.528L0.52,-0.528ZM0.032,-0.268C0.032,-0.322 0.04,-0.369 0.058,-0.409C0.075,-0.45 0.1,-0.482 0.132,-0.504C0.165,-0.527 0.203,-0.538 0.247,-0.538C0.283,-0.538 0.312,-0.531 0.336,-0.518C0.36,-0.504 0.38,-0.485 0.395,-0.461C0.41,-0.437 0.421,-0.408 0.43,-0.375C0.438,-0.342 0.445,-0.306 0.45,-0.267L0.45,-0.255C0.443,-0.206 0.432,-0.161 0.417,-0.121C0.402,-0.081 0.38,-0.049 0.353,-0.026C0.325,-0.002 0.289,0.01 0.246,0.01C0.202,0.01 0.164,-0.002 0.132,-0.025C0.1,-0.048 0.075,-0.08 0.058,-0.121C0.04,-0.161 0.032,-0.207 0.032,-0.258L0.032,-0.268ZM0.18,-0.258C0.18,-0.23 0.183,-0.206 0.191,-0.183C0.198,-0.161 0.21,-0.143 0.225,-0.13C0.24,-0.116 0.26,-0.11 0.284,-0.11C0.309,-0.11 0.329,-0.115 0.344,-0.126C0.36,-0.136 0.372,-0.151 0.38,-0.17C0.388,-0.189 0.392,-0.211 0.393,-0.235L0.393,-0.286C0.392,-0.307 0.39,-0.326 0.385,-0.343C0.381,-0.359 0.374,-0.373 0.365,-0.384C0.356,-0.395 0.345,-0.404 0.332,-0.41C0.319,-0.416 0.303,-0.418 0.285,-0.418C0.261,-0.418 0.242,-0.412 0.226,-0.399C0.21,-0.385 0.199,-0.368 0.191,-0.345C0.184,-0.322 0.18,-0.297 0.18,-0.268L0.18,-0.258Z" style="fill-rule:nonzero;"/>
        </g>
        <g transform="matrix(974.563,0,0,2637.74,2410.36,2119.88)">
            <path d="M0.347,-0.528L0.505,-0.528L0.294,0.079C0.289,0.092 0.283,0.106 0.275,0.122C0.268,0.137 0.257,0.152 0.244,0.166C0.232,0.18 0.215,0.191 0.196,0.2C0.176,0.209 0.152,0.213 0.124,0.213C0.114,0.213 0.107,0.213 0.1,0.212C0.093,0.212 0.087,0.211 0.081,0.209C0.074,0.208 0.067,0.206 0.06,0.204L0.06,0.093L0.081,0.093C0.109,0.093 0.129,0.089 0.142,0.081C0.154,0.072 0.164,0.059 0.17,0.04L0.209,-0.061L0.347,-0.528ZM0.269,-0.155L0.289,0.008L0.189,0.015L0,-0.528L0.159,-0.528L0.269,-0.155Z" style="fill-rule:nonzero;"/>
        </g>
    </g>
</svg>
