<?xml version="1.0" encoding="UTF-8" standalone="no"?>
<!DOCTYPE svg PUBLIC "-//W3C//DTD SVG 1.1//EN" "http://www.w3.org/Graphics/SVG/1.1/DTD/svg11.dtd">
<svg width="100%" height="100%" viewBox="0 0 3000 1076" version="1.1" xmlns="http://www.w3.org/2000/svg" xmlns:xlink="http://www.w3.org/1999/xlink" xml:space="preserve" xmlns:serif="http://www.serif.com/" style="fill-rule:evenodd;clip-rule:evenodd;stroke-linecap:round;stroke-linejoin:round;stroke-miterlimit:2;">
    <g transform="matrix(1.08207,0,0,0.399792,-170.617,-7.97549)">
        <g transform="matrix(974.563,0,0,2637.74,152.097,2119.88)">
            <path d="M0.299,0.01C0.244,0.01 0.196,-0.002 0.156,-0.025C0.117,-0.048 0.087,-0.079 0.066,-0.118C0.045,-0.156 0.034,-0.199 0.034,-0.246L0.034,-0.265C0.034,-0.318 0.044,-0.365 0.064,-0.406C0.084,-0.447 0.113,-0.479 0.15,-0.503C0.187,-0.526 0.231,-0.538 0.283,-0.538C0.334,-0.538 0.377,-0.527 0.412,-0.506C0.446,-0.484 0.473,-0.454 0.491,-0.415C0.509,-0.376 0.518,-0.331 0.518,-0.278L0.518,-0.216L0.096,-0.216L0.096,-0.315L0.373,-0.315L0.373,-0.327C0.373,-0.345 0.369,-0.361 0.363,-0.375C0.356,-0.389 0.346,-0.4 0.333,-0.408C0.32,-0.416 0.303,-0.419 0.282,-0.419C0.258,-0.419 0.238,-0.413 0.224,-0.399C0.209,-0.385 0.198,-0.367 0.192,-0.344C0.185,-0.321 0.182,-0.294 0.182,-0.265L0.182,-0.246C0.182,-0.219 0.187,-0.195 0.197,-0.175C0.207,-0.154 0.221,-0.138 0.24,-0.127C0.259,-0.115 0.282,-0.109 0.309,-0.109C0.334,-0.109 0.357,-0.114 0.379,-0.123C0.401,-0.133 0.419,-0.147 0.435,-0.167L0.506,-0.085C0.489,-0.062 0.464,-0.04 0.429,-0.02C0.394,-0 0.351,0.01 0.299,0.01Z" style="fill:none;fill-rule:nonzero;stroke:white;stroke-width:0.01px;"/>
        </g>
        <g transform="matrix(974.563,0,0,2637.74,669.358,2119.88)">
            <rect x="0.06" y="-0.75" width="0.148" height="0.75" style="fill:none;fill-rule:nonzero;stroke:white;stroke-width:0.01px;"/>
        </g>
        <g transform="matrix(974.563,0,0,2637.74,906.337,2119.88)">
            <path d="M0.299,0.01C0.244,0.01 0.196,-0.002 0.156,-0.025C0.117,-0.048 0.087,-0.079 0.066,-0.118C0.045,-0.156 0.034,-0.199 0.034,-0.246L0.034,-0.265C0.034,-0.318 0.044,-0.365 0.064,-0.406C0.084,-0.447 0.113,-0.479 0.15,-0.503C0.187,-0.526 0.231,-0.538 0.283,-0.538C0.334,-0.538 0.377,-0.527 0.412,-0.506C0.446,-0.484 0.473,-0.454 0.491,-0.415C0.509,-0.376 0.518,-0.331 0.518,-0.278L0.518,-0.216L0.096,-0.216L0.096,-0.315L0.373,-0.315L0.373,-0.327C0.373,-0.345 0.369,-0.361 0.363,-0.375C0.356,-0.389 0.346,-0.4 0.333,-0.408C0.32,-0.416 0.303,-0.419 0.282,-0.419C0.258,-0.419 0.238,-0.413 0.224,-0.399C0.209,-0.385 0.198,-0.367 0.192,-0.344C0.185,-0.321 0.182,-0.294 0.182,-0.265L0.182,-0.246C0.182,-0.219 0.187,-0.195 0.197,-0.175C0.207,-0.154 0.221,-0.138 0.24,-0.127C0.259,-0.115 0.282,-0.109 0.309,-0.109C0.334,-0.109 0.357,-0.114 0.379,-0.123C0.401,-0.133 0.419,-0.147 0.435,-0.167L0.506,-0.085C0.489,-0.062 0.464,-0.04 0.429,-0.02C0.394,-0 0.351,0.01 0.299,0.01Z" style="fill:none;fill-rule:nonzero;stroke:white;stroke-width:0.01px;"/>
        </g>
        <g transform="matrix(974.563,0,0,2637.74,1493.44,2053.93)">
            <path d="M0.09,-0.445L0.09,-0.573C0.09,-0.634 0.108,-0.68 0.143,-0.712C0.179,-0.744 0.226,-0.76 0.287,-0.76C0.3,-0.76 0.313,-0.759 0.325,-0.758C0.337,-0.756 0.349,-0.753 0.36,-0.75L0.359,-0.637C0.353,-0.638 0.347,-0.639 0.34,-0.64C0.333,-0.64 0.325,-0.641 0.316,-0.641C0.292,-0.641 0.272,-0.635 0.259,-0.623C0.245,-0.612 0.238,-0.595 0.238,-0.573L0.238,-0.445L0.09,-0.445Z" style="fill:none;fill-rule:nonzero;stroke:white;stroke-width:0.01px;"/>
        </g>
        <g transform="matrix(5.40161,14.62,-5.40161,14.62,477.071,-38290.9)">
            <path d="M1470.42,1239.26C1470.53,1239.38 1470.68,1239.44 1470.84,1239.44C1471,1239.44 1471.16,1239.38 1471.27,1239.26C1473.28,1237.25 1481.8,1228.73 1483.81,1226.72C1483.93,1226.61 1484.08,1226.54 1484.24,1226.54C1484.4,1226.54 1484.56,1226.61 1484.67,1226.72C1486.15,1228.2 1490.95,1233.01 1490.95,1233.01L1482.01,1237.53C1482.01,1237.53 1477.99,1238.88 1476.13,1239.51C1475.93,1239.58 1475.78,1239.75 1475.73,1239.95C1475.69,1240.15 1475.75,1240.37 1475.89,1240.52C1477.55,1242.17 1481.76,1246.38 1483.41,1248.03C1483.56,1248.18 1483.78,1248.24 1483.98,1248.19C1484.18,1248.15 1484.35,1248 1484.41,1247.8C1485.23,1245.42 1487.4,1239.06 1488.3,1236.43C1488.37,1236.21 1488.32,1235.97 1488.15,1235.8C1487.99,1235.64 1487.75,1235.58 1487.53,1235.66C1485.62,1236.31 1482.01,1237.53 1482.01,1237.53L1490.95,1233.01C1490.95,1233.01 1495.74,1237.79 1497.21,1239.26C1497.33,1239.38 1497.39,1239.53 1497.39,1239.69C1497.39,1239.85 1497.33,1240.01 1497.21,1240.12C1495.2,1242.13 1486.68,1250.65 1484.67,1252.66C1484.56,1252.77 1484.49,1252.93 1484.49,1253.09C1484.49,1253.25 1484.56,1253.4 1484.67,1253.52C1486.68,1255.53 1495.2,1264.05 1497.21,1266.06C1497.33,1266.17 1497.39,1266.33 1497.39,1266.49C1497.39,1266.65 1497.33,1266.8 1497.21,1266.91C1495.73,1268.39 1490.94,1273.19 1490.94,1273.19L1486.33,1264.03C1486.33,1264.03 1485.03,1260.19 1484.41,1258.38C1484.35,1258.18 1484.18,1258.03 1483.98,1257.99C1483.77,1257.94 1483.56,1258 1483.41,1258.15C1481.76,1259.8 1477.56,1264 1475.9,1265.66C1475.75,1265.81 1475.69,1266.02 1475.74,1266.22C1475.79,1266.43 1475.93,1266.59 1476.13,1266.66C1478.52,1267.47 1484.88,1269.63 1487.51,1270.53C1487.73,1270.6 1487.97,1270.55 1488.13,1270.38C1488.3,1270.22 1488.36,1269.98 1488.28,1269.76C1487.61,1267.8 1486.33,1264.03 1486.33,1264.03L1490.94,1273.19C1490.94,1273.19 1486.14,1277.98 1484.67,1279.46C1484.43,1279.69 1484.05,1279.69 1483.81,1279.46C1481.8,1277.44 1473.28,1268.93 1471.27,1266.91C1471.16,1266.8 1471,1266.74 1470.84,1266.74C1470.68,1266.74 1470.53,1266.8 1470.42,1266.91C1468.4,1268.93 1459.89,1277.44 1457.87,1279.46C1457.76,1279.57 1457.61,1279.63 1457.45,1279.63C1457.29,1279.63 1457.13,1279.57 1457.02,1279.46C1455.54,1277.98 1450.76,1273.2 1450.76,1273.2L1459.39,1268.76C1459.39,1268.76 1463.64,1267.32 1465.55,1266.66C1465.75,1266.6 1465.9,1266.43 1465.95,1266.23C1465.99,1266.02 1465.93,1265.81 1465.79,1265.66C1464.13,1264.01 1459.92,1259.8 1458.27,1258.14C1458.12,1258 1457.9,1257.93 1457.7,1257.98C1457.5,1258.03 1457.33,1258.18 1457.27,1258.38C1456.46,1260.77 1454.3,1267.14 1453.41,1269.78C1453.34,1270 1453.39,1270.24 1453.56,1270.4C1453.72,1270.56 1453.96,1270.62 1454.18,1270.54C1456.02,1269.92 1459.39,1268.76 1459.39,1268.76L1450.76,1273.2C1450.76,1273.2 1445.95,1268.39 1444.48,1266.91C1444.36,1266.8 1444.3,1266.65 1444.3,1266.49C1444.3,1266.33 1444.36,1266.17 1444.48,1266.06C1446.49,1264.05 1455.01,1255.53 1457.02,1253.52C1457.13,1253.4 1457.2,1253.25 1457.2,1253.09C1457.2,1252.93 1457.13,1252.77 1457.02,1252.66C1455.01,1250.65 1446.49,1242.13 1444.48,1240.12C1444.24,1239.88 1444.24,1239.5 1444.48,1239.26C1445.95,1237.79 1450.75,1232.99 1450.75,1232.99L1455.34,1242.13C1455.34,1242.13 1456.65,1245.98 1457.27,1247.79C1457.33,1247.99 1457.5,1248.14 1457.7,1248.19C1457.91,1248.23 1458.12,1248.17 1458.27,1248.03C1459.92,1246.37 1464.12,1242.17 1465.78,1240.51C1465.93,1240.37 1465.99,1240.15 1465.94,1239.95C1465.89,1239.75 1465.74,1239.58 1465.55,1239.51C1463.16,1238.7 1456.8,1236.54 1454.17,1235.65C1453.95,1235.57 1453.71,1235.63 1453.54,1235.79C1453.38,1235.95 1453.32,1236.2 1453.4,1236.41C1454.06,1238.38 1455.34,1242.13 1455.34,1242.13L1450.75,1232.99C1450.75,1232.99 1455.54,1228.2 1457.02,1226.72C1457.13,1226.61 1457.29,1226.54 1457.45,1226.54C1457.61,1226.54 1457.76,1226.61 1457.87,1226.72C1459.89,1228.73 1468.4,1237.25 1470.42,1239.26Z" style="fill:none;stroke:white;stroke-width:1.51px;stroke-miterlimit:1.5;"/>
        </g>
        <g transform="matrix(974.563,0,0,2637.74,1863.12,2119.88)">
            <path d="M0.52,-0.528L0.52,-0.019C0.52,0.029 0.509,0.071 0.488,0.104C0.466,0.138 0.436,0.164 0.397,0.182C0.358,0.199 0.313,0.208 0.262,0.208C0.24,0.208 0.217,0.205 0.192,0.199C0.168,0.193 0.144,0.184 0.121,0.172C0.099,0.16 0.08,0.145 0.065,0.126L0.129,0.036C0.145,0.054 0.164,0.068 0.185,0.078C0.207,0.088 0.23,0.093 0.256,0.093C0.293,0.093 0.321,0.084 0.342,0.064C0.362,0.045 0.372,0.017 0.372,-0.019L0.372,-0.405L0.386,-0.528L0.52,-0.528ZM0.032,-0.268C0.032,-0.322 0.04,-0.369 0.058,-0.409C0.075,-0.45 0.1,-0.482 0.132,-0.504C0.165,-0.527 0.203,-0.538 0.247,-0.538C0.283,-0.538 0.312,-0.531 0.336,-0.518C0.36,-0.504 0.38,-0.485 0.395,-0.461C0.41,-0.437 0.421,-0.408 0.43,-0.375C0.438,-0.342 0.445,-0.306 0.45,-0.267L0.45,-0.255C0.443,-0.206 0.432,-0.161 0.417,-0.121C0.402,-0.081 0.38,-0.049 0.353,-0.026C0.325,-0.002 0.289,0.01 0.246,0.01C0.202,0.01 0.164,-0.002 0.132,-0.025C0.1,-0.048 0.075,-0.08 0.058,-0.121C0.04,-0.161 0.032,-0.207 0.032,-0.258L0.032,-0.268ZM0.18,-0.258C0.18,-0.23 0.183,-0.206 0.191,-0.183C0.198,-0.161 0.21,-0.143 0.225,-0.13C0.24,-0.116 0.26,-0.11 0.284,-0.11C0.309,-0.11 0.329,-0.115 0.344,-0.126C0.36,-0.136 0.372,-0.151 0.38,-0.17C0.388,-0.189 0.392,-0.211 0.393,-0.235L0.393,-0.286C0.392,-0.307 0.39,-0.326 0.385,-0.343C0.381,-0.359 0.374,-0.373 0.365,-0.384C0.356,-0.395 0.345,-0.404 0.332,-0.41C0.319,-0.416 0.303,-0.418 0.285,-0.418C0.261,-0.418 0.242,-0.412 0.226,-0.399C0.21,-0.385 0.199,-0.368 0.191,-0.345C0.184,-0.322 0.18,-0.297 0.18,-0.268L0.18,-0.258Z" style="fill:none;fill-rule:nonzero;stroke:white;stroke-width:0.01px;"/>
        </g>
        <g transform="matrix(974.563,0,0,2637.74,2410.36,2119.88)">
            <path d="M0.347,-0.528L0.505,-0.528L0.294,0.079C0.289,0.092 0.283,0.106 0.275,0.122C0.268,0.137 0.257,0.152 0.244,0.166C0.232,0.18 0.215,0.191 0.196,0.2C0.176,0.209 0.152,0.213 0.124,0.213C0.114,0.213 0.107,0.213 0.1,0.212C0.093,0.212 0.087,0.211 0.081,0.209C0.074,0.208 0.067,0.206 0.06,0.204L0.06,0.093L0.081,0.093C0.109,0.093 0.129,0.089 0.142,0.081C0.154,0.072 0.164,0.059 0.17,0.04L0.209,-0.061L0.347,-0.528ZM0.269,-0.155L0.289,0.008L0.189,0.015L0,-0.528L0.159,-0.528L0.269,-0.155Z" style="fill:none;fill-rule:nonzero;stroke:white;stroke-width:0.01px;"/>
        </g>
    </g>
    <g transform="matrix(1.08207,0,0,0.399792,-170.617,-7.97549)">
        <g transform="matrix(974.563,0,0,2637.74,152.097,2119.88)">
            <path d="M0.299,0.01C0.244,0.01 0.196,-0.002 0.156,-0.025C0.117,-0.048 0.087,-0.079 0.066,-0.118C0.045,-0.156 0.034,-0.199 0.034,-0.246L0.034,-0.265C0.034,-0.318 0.044,-0.365 0.064,-0.406C0.084,-0.447 0.113,-0.479 0.15,-0.503C0.187,-0.526 0.231,-0.538 0.283,-0.538C0.334,-0.538 0.377,-0.527 0.412,-0.506C0.446,-0.484 0.473,-0.454 0.491,-0.415C0.509,-0.376 0.518,-0.331 0.518,-0.278L0.518,-0.216L0.096,-0.216L0.096,-0.315L0.373,-0.315L0.373,-0.327C0.373,-0.345 0.369,-0.361 0.363,-0.375C0.356,-0.389 0.346,-0.4 0.333,-0.408C0.32,-0.416 0.303,-0.419 0.282,-0.419C0.258,-0.419 0.238,-0.413 0.224,-0.399C0.209,-0.385 0.198,-0.367 0.192,-0.344C0.185,-0.321 0.182,-0.294 0.182,-0.265L0.182,-0.246C0.182,-0.219 0.187,-0.195 0.197,-0.175C0.207,-0.154 0.221,-0.138 0.24,-0.127C0.259,-0.115 0.282,-0.109 0.309,-0.109C0.334,-0.109 0.357,-0.114 0.379,-0.123C0.401,-0.133 0.419,-0.147 0.435,-0.167L0.506,-0.085C0.489,-0.062 0.464,-0.04 0.429,-0.02C0.394,-0 0.351,0.01 0.299,0.01Z" style="fill-rule:nonzero;"/>
        </g>
        <g transform="matrix(974.563,0,0,2637.74,669.358,2119.88)">
            <rect x="0.06" y="-0.75" width="0.148" height="0.75" style="fill-rule:nonzero;"/>
        </g>
        <g transform="matrix(974.563,0,0,2637.74,906.337,2119.88)">
            <path d="M0.299,0.01C0.244,0.01 0.196,-0.002 0.156,-0.025C0.117,-0.048 0.087,-0.079 0.066,-0.118C0.045,-0.156 0.034,-0.199 0.034,-0.246L0.034,-0.265C0.034,-0.318 0.044,-0.365 0.064,-0.406C0.084,-0.447 0.113,-0.479 0.15,-0.503C0.187,-0.526 0.231,-0.538 0.283,-0.538C0.334,-0.538 0.377,-0.527 0.412,-0.506C0.446,-0.484 0.473,-0.454 0.491,-0.415C0.509,-0.376 0.518,-0.331 0.518,-0.278L0.518,-0.216L0.096,-0.216L0.096,-0.315L0.373,-0.315L0.373,-0.327C0.373,-0.345 0.369,-0.361 0.363,-0.375C0.356,-0.389 0.346,-0.4 0.333,-0.408C0.32,-0.416 0.303,-0.419 0.282,-0.419C0.258,-0.419 0.238,-0.413 0.224,-0.399C0.209,-0.385 0.198,-0.367 0.192,-0.344C0.185,-0.321 0.182,-0.294 0.182,-0.265L0.182,-0.246C0.182,-0.219 0.187,-0.195 0.197,-0.175C0.207,-0.154 0.221,-0.138 0.24,-0.127C0.259,-0.115 0.282,-0.109 0.309,-0.109C0.334,-0.109 0.357,-0.114 0.379,-0.123C0.401,-0.133 0.419,-0.147 0.435,-0.167L0.506,-0.085C0.489,-0.062 0.464,-0.04 0.429,-0.02C0.394,-0 0.351,0.01 0.299,0.01Z" style="fill-rule:nonzero;"/>
        </g>
        <g transform="matrix(974.563,0,0,2637.74,1493.44,2053.93)">
            <path d="M0.09,-0.445L0.09,-0.573C0.09,-0.634 0.108,-0.68 0.143,-0.712C0.179,-0.744 0.226,-0.76 0.287,-0.76C0.3,-0.76 0.313,-0.759 0.325,-0.758C0.337,-0.756 0.349,-0.753 0.36,-0.75L0.359,-0.637C0.353,-0.638 0.347,-0.639 0.34,-0.64C0.333,-0.64 0.325,-0.641 0.316,-0.641C0.292,-0.641 0.272,-0.635 0.259,-0.623C0.245,-0.612 0.238,-0.595 0.238,-0.573L0.238,-0.445L0.09,-0.445Z" style="fill-rule:nonzero;"/>
        </g>
        <g transform="matrix(5.40161,14.62,-5.40161,14.62,477.071,-38290.9)">
            <path d="M1470.42,1239.26C1470.53,1239.38 1470.68,1239.44 1470.84,1239.44C1471,1239.44 1471.16,1239.38 1471.27,1239.26C1473.28,1237.25 1481.8,1228.73 1483.81,1226.72C1483.93,1226.61 1484.08,1226.54 1484.24,1226.54C1484.4,1226.54 1484.56,1226.61 1484.67,1226.72C1486.15,1228.2 1490.95,1233.01 1490.95,1233.01L1482.01,1237.53C1482.01,1237.53 1477.99,1238.88 1476.13,1239.51C1475.93,1239.58 1475.78,1239.75 1475.73,1239.95C1475.69,1240.15 1475.75,1240.37 1475.89,1240.52C1477.55,1242.17 1481.76,1246.38 1483.41,1248.03C1483.56,1248.18 1483.78,1248.24 1483.98,1248.19C1484.18,1248.15 1484.35,1248 1484.41,1247.8C1485.23,1245.42 1487.4,1239.06 1488.3,1236.43C1488.37,1236.21 1488.32,1235.97 1488.15,1235.8C1487.99,1235.64 1487.75,1235.58 1487.53,1235.66C1485.62,1236.31 1482.01,1237.53 1482.01,1237.53L1490.95,1233.01C1490.95,1233.01 1495.74,1237.79 1497.21,1239.26C1497.33,1239.38 1497.39,1239.53 1497.39,1239.69C1497.39,1239.85 1497.33,1240.01 1497.21,1240.12C1495.2,1242.13 1486.68,1250.65 1484.67,1252.66C1484.56,1252.77 1484.49,1252.93 1484.49,1253.09C1484.49,1253.25 1484.56,1253.4 1484.67,1253.52C1486.68,1255.53 1495.2,1264.05 1497.21,1266.06C1497.33,1266.17 1497.39,1266.33 1497.39,1266.49C1497.39,1266.65 1497.33,1266.8 1497.21,1266.91C1495.73,1268.39 1490.94,1273.19 1490.94,1273.19L1486.33,1264.03C1486.33,1264.03 1485.03,1260.19 1484.41,1258.38C1484.35,1258.18 1484.18,1258.03 1483.98,1257.99C1483.77,1257.94 1483.56,1258 1483.41,1258.15C1481.76,1259.8 1477.56,1264 1475.9,1265.66C1475.75,1265.81 1475.69,1266.02 1475.74,1266.22C1475.79,1266.43 1475.93,1266.59 1476.13,1266.66C1478.52,1267.47 1484.88,1269.63 1487.51,1270.53C1487.73,1270.6 1487.97,1270.55 1488.13,1270.38C1488.3,1270.22 1488.36,1269.98 1488.28,1269.76C1487.61,1267.8 1486.33,1264.03 1486.33,1264.03L1490.94,1273.19C1490.94,1273.19 1486.14,1277.98 1484.67,1279.46C1484.43,1279.69 1484.05,1279.69 1483.81,1279.46C1481.8,1277.44 1473.28,1268.93 1471.27,1266.91C1471.16,1266.8 1471,1266.74 1470.84,1266.74C1470.68,1266.74 1470.53,1266.8 1470.42,1266.91C1468.4,1268.93 1459.89,1277.44 1457.87,1279.46C1457.76,1279.57 1457.61,1279.63 1457.45,1279.63C1457.29,1279.63 1457.13,1279.57 1457.02,1279.46C1455.54,1277.98 1450.76,1273.2 1450.76,1273.2L1459.39,1268.76C1459.39,1268.76 1463.64,1267.32 1465.55,1266.66C1465.75,1266.6 1465.9,1266.43 1465.95,1266.23C1465.99,1266.02 1465.93,1265.81 1465.79,1265.66C1464.13,1264.01 1459.92,1259.8 1458.27,1258.14C1458.12,1258 1457.9,1257.93 1457.7,1257.98C1457.5,1258.03 1457.33,1258.18 1457.27,1258.38C1456.46,1260.77 1454.3,1267.14 1453.41,1269.78C1453.34,1270 1453.39,1270.24 1453.56,1270.4C1453.72,1270.56 1453.96,1270.62 1454.18,1270.54C1456.02,1269.92 1459.39,1268.76 1459.39,1268.76L1450.76,1273.2C1450.76,1273.2 1445.95,1268.39 1444.48,1266.91C1444.36,1266.8 1444.3,1266.65 1444.3,1266.49C1444.3,1266.33 1444.36,1266.17 1444.48,1266.06C1446.49,1264.05 1455.01,1255.53 1457.02,1253.52C1457.13,1253.4 1457.2,1253.25 1457.2,1253.09C1457.2,1252.93 1457.13,1252.77 1457.02,1252.66C1455.01,1250.65 1446.49,1242.13 1444.48,1240.12C1444.24,1239.88 1444.24,1239.5 1444.48,1239.26C1445.95,1237.79 1450.75,1232.99 1450.75,1232.99L1455.34,1242.13C1455.34,1242.13 1456.65,1245.98 1457.27,1247.79C1457.33,1247.99 1457.5,1248.14 1457.7,1248.19C1457.91,1248.23 1458.12,1248.17 1458.27,1248.03C1459.92,1246.37 1464.12,1242.17 1465.78,1240.51C1465.93,1240.37 1465.99,1240.15 1465.94,1239.95C1465.89,1239.75 1465.74,1239.58 1465.55,1239.51C1463.16,1238.7 1456.8,1236.54 1454.17,1235.65C1453.95,1235.57 1453.71,1235.63 1453.54,1235.79C1453.38,1235.95 1453.32,1236.2 1453.4,1236.41C1454.06,1238.38 1455.34,1242.13 1455.34,1242.13L1450.75,1232.99C1450.75,1232.99 1455.54,1228.2 1457.02,1226.72C1457.13,1226.61 1457.29,1226.54 1457.45,1226.54C1457.61,1226.54 1457.76,1226.61 1457.87,1226.72C1459.89,1228.73 1468.4,1237.25 1470.42,1239.26Z" style="fill:rgb(51,153,0);"/>
        </g>
        <g transform="matrix(974.563,0,0,2637.74,1863.12,2119.88)">
            <path d="M0.52,-0.528L0.52,-0.019C0.52,0.029 0.509,0.071 0.488,0.104C0.466,0.138 0.436,0.164 0.397,0.182C0.358,0.199 0.313,0.208 0.262,0.208C0.24,0.208 0.217,0.205 0.192,0.199C0.168,0.193 0.144,0.184 0.121,0.172C0.099,0.16 0.08,0.145 0.065,0.126L0.129,0.036C0.145,0.054 0.164,0.068 0.185,0.078C0.207,0.088 0.23,0.093 0.256,0.093C0.293,0.093 0.321,0.084 0.342,0.064C0.362,0.045 0.372,0.017 0.372,-0.019L0.372,-0.405L0.386,-0.528L0.52,-0.528ZM0.032,-0.268C0.032,-0.322 0.04,-0.369 0.058,-0.409C0.075,-0.45 0.1,-0.482 0.132,-0.504C0.165,-0.527 0.203,-0.538 0.247,-0.538C0.283,-0.538 0.312,-0.531 0.336,-0.518C0.36,-0.504 0.38,-0.485 0.395,-0.461C0.41,-0.437 0.421,-0.408 0.43,-0.375C0.438,-0.342 0.445,-0.306 0.45,-0.267L0.45,-0.255C0.443,-0.206 0.432,-0.161 0.417,-0.121C0.402,-0.081 0.38,-0.049 0.353,-0.026C0.325,-0.002 0.289,0.01 0.246,0.01C0.202,0.01 0.164,-0.002 0.132,-0.025C0.1,-0.048 0.075,-0.08 0.058,-0.121C0.04,-0.161 0.032,-0.207 0.032,-0.258L0.032,-0.268ZM0.18,-0.258C0.18,-0.23 0.183,-0.206 0.191,-0.183C0.198,-0.161 0.21,-0.143 0.225,-0.13C0.24,-0.116 0.26,-0.11 0.284,-0.11C0.309,-0.11 0.329,-0.115 0.344,-0.126C0.36,-0.136 0.372,-0.151 0.38,-0.17C0.388,-0.189 0.392,-0.211 0.393,-0.235L0.393,-0.286C0.392,-0.307 0.39,-0.326 0.385,-0.343C0.381,-0.359 0.374,-0.373 0.365,-0.384C0.356,-0.395 0.345,-0.404 0.332,-0.41C0.319,-0.416 0.303,-0.418 0.285,-0.418C0.261,-0.418 0.242,-0.412 0.226,-0.399C0.21,-0.385 0.199,-0.368 0.191,-0.345C0.184,-0.322 0.18,-0.297 0.18,-0.268L0.18,-0.258Z" style="fill-rule:nonzero;"/>
        </g>
        <g transform="matrix(974.563,0,0,2637.74,2410.36,2119.88)">
            <path d="M0.347,-0.528L0.505,-0.528L0.294,0.079C0.289,0.092 0.283,0.106 0.275,0.122C0.268,0.137 0.257,0.152 0.244,0.166C0.232,0.18 0.215,0.191 0.196,0.2C0.176,0.209 0.152,0.213 0.124,0.213C0.114,0.213 0.107,0.213 0.1,0.212C0.093,0.212 0.087,0.211 0.081,0.209C0.074,0.208 0.067,0.206 0.06,0.204L0.06,0.093L0.081,0.093C0.109,0.093 0.129,0.089 0.142,0.081C0.154,0.072 0.164,0.059 0.17,0.04L0.209,-0.061L0.347,-0.528ZM0.269,-0.155L0.289,0.008L0.189,0.015L0,-0.528L0.159,-0.528L0.269,-0.155Z" style="fill-rule:nonzero;"/>
        </g>
    </g>
</svg>
